<mxfile host="app.diagrams.net" modified="2024-05-14T07:42:56.949Z" agent="Mozilla/5.0 (Windows NT 10.0; Win64; x64) AppleWebKit/537.36 (KHTML, like Gecko) Chrome/124.0.0.0 Safari/537.36" version="24.4.0" etag="KJkPq2MeP5QPtXCrPGwV" type="github">
  <diagram name="Page-1" id="H8RKtXy9UH04xmAN9lm1">
    <mxGraphModel>
      <root>
        <mxCell id="0" />
        <mxCell id="1" parent="0" />
      </root>
    </mxGraphModel>
  </diagram>
</mxfile>
